<svg width="23" height="22" viewBox="0 0 23 22" fill="#EC722B" xmlns="http://www.w3.org/2000/svg">
<path d="M11.5 0C13.33 0 15.085 0.731953 16.379 2.03484C17.673 3.33772 18.4 5.10481 18.4 6.94737V8.10526H23V10.4211H21.6579L20.7874 20.9382C20.7635 21.2276 20.6324 21.4973 20.4203 21.6939C20.2081 21.8906 19.9304 21.9998 19.642 22H3.358C3.06943 22.0001 2.79137 21.891 2.57898 21.6943C2.36659 21.4977 2.2354 21.2278 2.21145 20.9382L1.3409 10.4211H0V8.10526H4.6V6.94737C4.6 5.10481 5.32696 3.33772 6.62096 2.03484C7.91496 0.731953 9.67001 0 11.5 0ZM19.3499 10.4211H3.64895L4.416 19.6842H18.5828L19.3499 10.4211ZM12.65 12.7368V17.3684H10.35V12.7368H12.65ZM8.05 12.7368V17.3684H5.75V12.7368H8.05ZM17.25 12.7368V17.3684H14.95V12.7368H17.25ZM11.5 2.31579C10.3198 2.31579 9.18479 2.7725 8.32967 3.59147C7.47455 4.41044 6.96476 5.529 6.90575 6.71579L6.9 6.94737V8.10526H16.1V6.94737C16.1 5.75909 15.6464 4.61626 14.833 3.75527C14.0196 2.89428 12.9087 2.38099 11.73 2.32158L11.5 2.31579Z" />
</svg>
