<svg width="14" height="14" viewBox="0 0 14 14" fill="none" xmlns="http://www.w3.org/2000/svg">
<path d="M8.2 12.7H5.8C3.5374 12.7 2.4058 12.7 1.7032 11.9968C1 11.2942 1 10.1626 1 7.9V6.7C1 4.4374 1 3.3058 1.7032 2.6032C2.4058 1.9 3.5374 1.9 5.8 1.9H8.2C10.4626 1.9 11.5942 1.9 12.2968 2.6032C13 3.3058 13 4.4374 13 6.7V7.9C13 10.1626 13 11.2942 12.2968 11.9968C11.905 12.3892 11.38 12.5626 10.6 12.6388M4 1.9V1M10 1.9V1M12.7 4.9H6.25M1 4.9H3.325" stroke="#4C4D56" stroke-width="1.5" stroke-linecap="round"/>
<path d="M10.6 9.69995C10.6 9.85908 10.5368 10.0117 10.4243 10.1242C10.3118 10.2367 10.1592 10.3 10 10.3C9.84089 10.3 9.68828 10.2367 9.57576 10.1242C9.46324 10.0117 9.40002 9.85908 9.40002 9.69995C9.40002 9.54082 9.46324 9.38821 9.57576 9.27569C9.68828 9.16316 9.84089 9.09995 10 9.09995C10.1592 9.09995 10.3118 9.16316 10.4243 9.27569C10.5368 9.38821 10.6 9.54082 10.6 9.69995ZM10.6 7.29995C10.6 7.45908 10.5368 7.61169 10.4243 7.72422C10.3118 7.83674 10.1592 7.89995 10 7.89995C9.84089 7.89995 9.68828 7.83674 9.57576 7.72422C9.46324 7.61169 9.40002 7.45908 9.40002 7.29995C9.40002 7.14082 9.46324 6.98821 9.57576 6.87569C9.68828 6.76317 9.84089 6.69995 10 6.69995C10.1592 6.69995 10.3118 6.76317 10.4243 6.87569C10.5368 6.98821 10.6 7.14082 10.6 7.29995ZM7.60002 9.69995C7.60002 9.85908 7.53681 10.0117 7.42429 10.1242C7.31177 10.2367 7.15915 10.3 7.00002 10.3C6.84089 10.3 6.68828 10.2367 6.57576 10.1242C6.46324 10.0117 6.40002 9.85908 6.40002 9.69995C6.40002 9.54082 6.46324 9.38821 6.57576 9.27569C6.68828 9.16316 6.84089 9.09995 7.00002 9.09995C7.15915 9.09995 7.31177 9.16316 7.42429 9.27569C7.53681 9.38821 7.60002 9.54082 7.60002 9.69995ZM7.60002 7.29995C7.60002 7.45908 7.53681 7.61169 7.42429 7.72422C7.31177 7.83674 7.15915 7.89995 7.00002 7.89995C6.84089 7.89995 6.68828 7.83674 6.57576 7.72422C6.46324 7.61169 6.40002 7.45908 6.40002 7.29995C6.40002 7.14082 6.46324 6.98821 6.57576 6.87569C6.68828 6.76317 6.84089 6.69995 7.00002 6.69995C7.15915 6.69995 7.31177 6.76317 7.42429 6.87569C7.53681 6.98821 7.60002 7.14082 7.60002 7.29995ZM4.60002 9.69995C4.60002 9.85908 4.53681 10.0117 4.42429 10.1242C4.31177 10.2367 4.15915 10.3 4.00002 10.3C3.84089 10.3 3.68828 10.2367 3.57576 10.1242C3.46324 10.0117 3.40002 9.85908 3.40002 9.69995C3.40002 9.54082 3.46324 9.38821 3.57576 9.27569C3.68828 9.16316 3.84089 9.09995 4.00002 9.09995C4.15915 9.09995 4.31177 9.16316 4.42429 9.27569C4.53681 9.38821 4.60002 9.54082 4.60002 9.69995ZM4.60002 7.29995C4.60002 7.45908 4.53681 7.61169 4.42429 7.72422C4.31177 7.83674 4.15915 7.89995 4.00002 7.89995C3.84089 7.89995 3.68828 7.83674 3.57576 7.72422C3.46324 7.61169 3.40002 7.45908 3.40002 7.29995C3.40002 7.14082 3.46324 6.98821 3.57576 6.87569C3.68828 6.76317 3.84089 6.69995 4.00002 6.69995C4.15915 6.69995 4.31177 6.76317 4.42429 6.87569C4.53681 6.98821 4.60002 7.14082 4.60002 7.29995Z" fill="black"/>
</svg>
