<svg width="20" height="20" viewBox="0 0 20 16" fill="none" xmlns="http://www.w3.org/2000/svg">
<path d="M9.59481 2.44926L10 3.0097L10.4052 2.44926C11.2759 1.24487 12.7759 0.500077 14.5452 0.5C15.869 0.501509 17.1321 0.994746 18.0589 1.8622C18.9845 2.72868 19.4985 3.89614 19.5 5.10633C19.4997 7.36077 17.9931 9.81806 14.7696 12.4001C13.3009 13.5715 11.7142 14.6075 10.0315 15.4935C10.0231 15.4973 10.0122 15.5 10 15.5C9.98779 15.5 9.97694 15.4973 9.96854 15.4935C8.2858 14.6075 6.69906 13.5715 5.23037 12.4001C2.00677 9.81794 0.500139 7.36054 0.5 5.10602C0.501593 3.89594 1.01555 2.7286 1.94115 1.8622C2.86787 0.994747 4.13096 0.50151 5.45482 0.5C7.22411 0.500076 8.72405 1.24487 9.59481 2.44926Z" stroke="#4C4D56"/>
</svg>
