<svg width="20" height="20" viewBox="0 0 20 16" fill="none" xmlns="http://www.w3.org/2000/svg">
<path d="M14.5455 0C12.6364 0 10.9764 0.805852 10 2.15631C9.02364 0.805852 7.36364 0 5.45455 0C4.00843 0.00157648 2.62202 0.540004 1.59946 1.49717C0.576899 2.45433 0.00168419 3.75208 0 5.10571C0 7.59049 1.65455 10.1765 4.91818 12.7907C6.41368 13.9835 8.0291 15.0379 9.74182 15.9392C9.82119 15.9791 9.90989 16 10 16C10.0901 16 10.1788 15.9791 10.2582 15.9392C11.9709 15.0379 13.5863 13.9835 15.0818 12.7907C18.3455 10.1765 20 7.59049 20 5.10571C19.9983 3.75208 19.4231 2.45433 18.4005 1.49717C17.378 0.540004 15.9916 0.00157648 14.5455 0Z" fill="#EC722B"/>
</svg>
