<svg width="16" height="16" viewBox="0 0 16 16" fill="none" xmlns="http://www.w3.org/2000/svg">
<path d="M7.43463 1.08156C7.5843 0.620902 8.23601 0.620907 8.38568 1.08156L9.56751 4.71885C9.76832 5.33688 10.3443 5.75532 10.9941 5.75532H14.8186C15.3029 5.75532 15.5043 6.37513 15.1125 6.65983L12.0184 8.9078C11.4927 9.28976 11.2727 9.96681 11.4735 10.5848L12.6553 14.2221C12.805 14.6828 12.2778 15.0659 11.8859 14.7812L8.79183 12.5332C8.2661 12.1512 7.55421 12.1512 7.02848 12.5332L3.93442 14.7812C3.54256 15.0659 3.01532 14.6828 3.165 14.2221L4.34682 10.5848C4.54763 9.96682 4.32765 9.28976 3.80192 8.9078L0.707855 6.65983C0.315997 6.37513 0.517387 5.75532 1.00175 5.75532H4.82622C5.47606 5.75532 6.05199 5.33688 6.2528 4.71885L7.43463 1.08156Z" stroke="#EC722B"/>
</svg>
