<svg width="20" height="20" viewBox="0 0 33 29" fill="none" xmlns="http://www.w3.org/2000/svg">
<path d="M2 2L27.7778 27M15.1273 8.44219C15.9647 8.20145 16.8536 8.18525 17.6997 8.3953C18.5458 8.60535 19.3174 9.03381 19.9324 9.63514C20.5475 10.2365 20.9831 10.9882 21.1929 11.8104C21.4027 12.6326 21.3788 13.4946 21.1239 14.3047M10.7161 4.93437C17.5859 1.62812 24.9857 4.29687 31 12.9375C29.3454 15.3141 27.5861 17.2391 25.7623 18.7125M21.72 21.1969C15.0113 24.0969 7.84994 21.3438 2 12.9375C3.62722 10.6 5.35594 8.69844 7.14911 7.23438" stroke="#4C4D56" stroke-width="3" stroke-linecap="round" stroke-linejoin="round"/>
</svg>
