<svg width="20" height="20" viewBox="0 0 20 20" fill="none" xmlns="http://www.w3.org/2000/svg">
<path d="M10.0069 17.6842C7.7783 17.6842 5.62111 16.848 3.57821 15.2167C1.90675 13.8596 0.735293 12.2969 0.192424 11.4744C0.066725 11.2837 0 11.0626 0 10.837C0 10.6113 0.066725 10.3903 0.192424 10.1995C0.735293 9.37704 1.90675 7.8006 3.57821 6.4572C7.63544 3.18093 12.3641 3.18093 16.4214 6.4572C18.0928 7.81431 19.2643 9.37704 19.8071 10.1995C20.0643 10.5971 20.0643 11.0769 19.8071 11.4744C19.2643 12.2969 18.0928 13.8733 16.4214 15.2167C14.3927 16.8617 12.2355 17.6842 9.99264 17.6842H10.0069ZM1.47817 10.8301C2.00675 11.6115 3.04963 12.9823 4.5068 14.1612C8.03545 17.0125 11.9784 17.0125 15.507 14.1612C16.9642 12.9823 18.0071 11.5978 18.5357 10.8301C18.0071 10.0487 16.9642 8.67792 15.507 7.49902C11.9784 4.64771 8.03545 4.64771 4.5068 7.49902C3.04963 8.67792 2.00675 10.0625 1.47817 10.8301Z" fill="#4C4D56"/>
<path d="M10.0069 14.2571C9.05971 14.2571 8.15128 13.8961 7.4815 13.2534C6.81171 12.6107 6.43543 11.739 6.43543 10.8301C6.43543 9.92118 6.81171 9.04949 7.4815 8.4068C8.15128 7.7641 9.05971 7.40304 10.0069 7.40304C10.9542 7.40304 11.8626 7.7641 12.5324 8.4068C13.2022 9.04949 13.5784 9.92118 13.5784 10.8301C13.5784 11.739 13.2022 12.6107 12.5324 13.2534C11.8626 13.8961 10.9542 14.2571 10.0069 14.2571ZM10.0069 8.77386C8.82119 8.77386 7.86403 9.69231 7.86403 10.8301C7.86403 11.9679 8.82119 12.8863 10.0069 12.8863C11.1927 12.8863 12.1498 11.9679 12.1498 10.8301C12.1498 9.69231 11.1927 8.77386 10.0069 8.77386Z" fill="#4C4D56"/>
</svg>
