<svg width="28" height="24" viewBox="0 0 28 24" fill="none" xmlns="http://www.w3.org/2000/svg">
<path fill-rule="evenodd" clip-rule="evenodd" d="M11.7522 0.586426H16.9006C19.2018 0.586426 21.0247 0.586426 22.4508 0.785401C23.9181 0.990879 25.1063 1.42264 26.0441 2.39541C26.9806 3.36948 27.3962 4.60365 27.5941 6.12783C27.7856 7.61039 27.7856 9.5026 27.7856 11.8929V12.0386C27.7856 14.4289 27.7856 16.3224 27.5941 17.8036C27.3962 19.3278 26.9806 20.562 26.0441 21.5361C25.1063 22.5088 23.9181 22.9406 22.4508 23.1461C21.0235 23.345 19.2018 23.345 16.9006 23.345H11.7522C9.45104 23.345 7.6281 23.345 6.20204 23.1461C4.73468 22.9406 3.54651 22.5088 2.60875 21.5361C1.67224 20.562 1.25657 19.3278 1.05875 17.8036C0.867188 16.3211 0.867188 14.4289 0.867188 12.0386V11.8929C0.867188 9.5026 0.867188 7.60909 1.05875 6.12783C1.25657 4.60365 1.67224 3.36948 2.60875 2.39541C3.54651 1.42264 4.73468 0.990879 6.20204 0.785401C7.62935 0.586426 9.45104 0.586426 11.7522 0.586426ZM6.4512 2.71923C5.19166 2.8948 4.46549 3.22513 3.93464 3.77523C3.40628 4.32534 3.08827 5.07963 2.91925 6.38792C2.74647 7.72483 2.74397 9.4857 2.74397 11.9657C2.74397 14.4458 2.74647 16.2066 2.91925 17.5449C3.08827 18.8518 3.40628 19.6061 3.93589 20.1562C4.46549 20.7063 5.19166 21.0367 6.4512 21.2122C7.73827 21.3917 9.43351 21.3943 11.8211 21.3943H16.8292C19.2168 21.3943 20.9133 21.3917 22.2004 21.2122C23.4586 21.0367 24.1848 20.7063 24.7144 20.1562C25.244 19.6061 25.562 18.8518 25.731 17.5435C25.9038 16.2066 25.9063 14.4458 25.9063 11.9657C25.9063 9.4857 25.9038 7.72483 25.731 6.38662C25.562 5.07963 25.244 4.32534 24.7144 3.77523C24.1848 3.22513 23.4586 2.8948 22.1991 2.71923C20.9133 2.53977 19.2168 2.53716 16.8292 2.53716H11.8211C9.43351 2.53716 7.73952 2.53977 6.4512 2.71923ZM6.09187 6.13953C6.25129 5.94093 6.48012 5.81621 6.72805 5.7928C6.97598 5.76939 7.22271 5.8492 7.414 6.01468L10.1196 8.35427C11.2877 9.36475 12.0978 10.0644 12.7839 10.5222C13.4462 10.9644 13.8957 11.1139 14.3277 11.1139C14.7596 11.1139 15.2091 10.9657 15.8714 10.5222C16.5562 10.0644 17.3676 9.36475 18.5357 8.35427L21.2388 6.01338C21.3336 5.93141 21.443 5.86963 21.5608 5.83157C21.6785 5.79351 21.8024 5.77992 21.9252 5.79157C22.048 5.80323 22.1675 5.83989 22.2766 5.89949C22.3858 5.95908 22.4826 6.04042 22.5616 6.13888C22.6405 6.23734 22.7 6.35097 22.7366 6.47331C22.7732 6.59564 22.7863 6.72427 22.7751 6.85186C22.7639 6.97944 22.7286 7.10348 22.6712 7.21689C22.6138 7.33031 22.5355 7.43087 22.4407 7.51285L19.6913 9.89275C18.5808 10.8551 17.6818 11.6328 16.8868 12.1634C16.0604 12.7161 15.2554 13.0647 14.3277 13.0647C13.3999 13.0647 12.5949 12.7148 11.7673 12.1634C10.9735 11.6328 10.0745 10.8538 8.964 9.89405L6.21331 7.51415C6.11846 7.43214 6.0401 7.33151 5.98271 7.21801C5.92533 7.10452 5.89004 6.98039 5.87888 6.85272C5.86772 6.72505 5.88089 6.59635 5.91765 6.47397C5.95441 6.3516 6.01279 6.23795 6.09187 6.13953Z" fill="#ffff"/>
</svg>
