<svg width="74" height="52" viewBox="0 0 74 52" fill="none" xmlns="http://www.w3.org/2000/svg">
<path d="M71.7779 15.7143V43.1429C71.7779 44.9615 71.0398 46.7056 69.7259 47.9916C68.412 49.2776 66.63 50 64.7718 50H8.72335C6.86522 50 5.0832 49.2776 3.76931 47.9916C2.45542 46.7056 1.71729 44.9615 1.71729 43.1429V8.85714C1.71729 7.03852 2.45542 5.29437 3.76931 4.00841C5.0832 2.72245 6.86522 2 8.72335 2H64.7718C66.63 2 68.412 2.72245 69.7259 4.00841C71.0398 5.29437 71.7779 7.03852 71.7779 8.85714V15.7143ZM71.7779 15.7143H15.7294" stroke="#4C4D56" stroke-width="3" stroke-linecap="round" stroke-linejoin="round"/>
</svg>
